<svg xmlns="http://www.w3.org/2000/svg" enable-background="new 0 0 64 64"
    viewBox="0 0 64 64"><path fill="#eceff1"
    d="M53.521,19.067v26.109L30.909,58.231L8.297,45.176V19.067L30.909,
    6.011L53.521,19.067z" class="colorececf1 svgShape"/>
    <rect width="6.061" height="6.061" x="27.758" y="38.667" fill="#2d99ff"
        class="colorffda2d svgShape"/><rect width="6.061" height="6.061"
        x="37.455" y="28.97" fill="#1a90ff" class="colorff641a svgShape"/><rect width="6.061" height="6.061" x="37.455" y="38.667" fill="#2592f8" class="color25d9f8 svgShape"/><rect width="6.061" height="6.061" x="18.061" y="28.97" fill="#7fb5e8" class="color7fe881 svgShape"/><rect width="6.061" height="6.061" x="27.758" y="19.273" fill="#1a90ff" class="colorff641a svgShape"/><rect width="6.061" height="6.061" x="37.455" y="19.273" fill="#2d99ff" class="colorffda2d svgShape"/><rect width="6.061" height="6.061" x="18.061" y="38.667" fill="#2592f8" class="color25d9f8 svgShape"/><circle cx="56.848" cy="49.576" r="1.212" fill="#000000" class="color000 svgShape"/><circle cx="54.424" cy="8.364" r="1.212" fill="#000000" class="color000 svgShape"/><circle cx="48.364" cy="58.061" r="1.212" fill="#000000" class="color000 svgShape"/><circle cx="45.333" cy="5.333" r="1.818" fill="#000000" class="color000 svgShape"/><rect width="6.061" height="6.061" x="27.758" y="28.97" fill="#2592f8" class="color25d9f8 svgShape"/><rect width="6.061" height="6.061" x="18.061" y="19.273" fill="#2592f8" class="color25d9f8 svgShape"/><circle cx="19.273" cy="59.273" r="1.212" fill="#000000" class="color000 svgShape"/><circle cx="18.061" cy="7.152" r="1.212" fill="#000000" class="color000 svgShape"/><circle cx="7.758" cy="7.758" r="1.818" fill="#000000" class="color000 svgShape"/><circle cx="7.758" cy="55.03" r="1.818" fill="#000000" class="color000 svgShape"/><path d="M30.909,59.444c-0.209,0-0.419-0.054-0.606-0.162L7.691,46.226c-0.375-0.216-0.606-0.617-0.606-1.05V19.067c0-0.433,0.231-0.833,0.606-1.05L30.303,4.961c0.375-0.217,0.837-0.217,1.212,0l22.612,13.056c0.375,0.217,0.606,0.617,0.606,1.05v26.109c0,0.433-0.231,0.833-0.606,1.05L31.515,59.281C31.328,59.39,31.118,59.444,30.909,59.444z M9.509,44.476l21.4,12.356l21.4-12.356V19.766l-21.4-12.356l-21.4,12.356V44.476z" fill="#000000" class="color000 svgShape"/><path d="M24.121 26.545h-6.061c-.669 0-1.212-.543-1.212-1.212v-6.061c0-.669.543-1.212 1.212-1.212h6.061c.669 0 1.212.543 1.212 1.212v6.061C25.333 26.003 24.791 26.545 24.121 26.545zM19.273 24.121h3.636v-3.636h-3.636V24.121zM33.818 26.545h-6.061c-.669 0-1.212-.543-1.212-1.212v-6.061c0-.669.543-1.212 1.212-1.212h6.061c.669 0 1.212.543 1.212 1.212v6.061C35.03 26.003 34.488 26.545 33.818 26.545zM28.97 24.121h3.636v-3.636H28.97V24.121zM43.515 26.545h-6.061c-.669 0-1.212-.543-1.212-1.212v-6.061c0-.669.543-1.212 1.212-1.212h6.061c.669 0 1.212.543 1.212 1.212v6.061C44.727 26.003 44.185 26.545 43.515 26.545zM38.667 24.121h3.636v-3.636h-3.636V24.121zM24.121 36.242h-6.061c-.669 0-1.212-.543-1.212-1.212V28.97c0-.669.543-1.212 1.212-1.212h6.061c.669 0 1.212.543 1.212 1.212v6.061C25.333 35.7 24.791 36.242 24.121 36.242zM19.273 33.818h3.636v-3.636h-3.636V33.818zM33.818 36.242h-6.061c-.669 0-1.212-.543-1.212-1.212V28.97c0-.669.543-1.212 1.212-1.212h6.061c.669 0 1.212.543 1.212 1.212v6.061C35.03 35.7 34.488 36.242 33.818 36.242zM28.97 33.818h3.636v-3.636H28.97V33.818zM43.515 36.242h-6.061c-.669 0-1.212-.543-1.212-1.212V28.97c0-.669.543-1.212 1.212-1.212h6.061c.669 0 1.212.543 1.212 1.212v6.061C44.727 35.7 44.185 36.242 43.515 36.242zM38.667 33.818h3.636v-3.636h-3.636V33.818zM24.121 45.939h-6.061c-.669 0-1.212-.543-1.212-1.212v-6.061c0-.669.543-1.212 1.212-1.212h6.061c.669 0 1.212.543 1.212 1.212v6.061C25.333 45.397 24.791 45.939 24.121 45.939zM19.273 43.515h3.636v-3.636h-3.636V43.515zM33.818 45.939h-6.061c-.669 0-1.212-.543-1.212-1.212v-6.061c0-.669.543-1.212 1.212-1.212h6.061c.669 0 1.212.543 1.212 1.212v6.061C35.03 45.397 34.488 45.939 33.818 45.939zM28.97 43.515h3.636v-3.636H28.97V43.515zM43.515 45.939h-6.061c-.669 0-1.212-.543-1.212-1.212v-6.061c0-.669.543-1.212 1.212-1.212h6.061c.669 0 1.212.543 1.212 1.212v6.061C44.727 45.397 44.185 45.939 43.515 45.939zM38.667 43.515h3.636v-3.636h-3.636V43.515z" fill="#000000" class="color000 svgShape"/></svg>