<svg xmlns="http://www.w3.org/2000/svg" id="Layer_1" enable-background="new 0 0 128 128" version="1.1" viewBox="0 0 128 128" xml:space="preserve"><rect width="101.2" height="78.6" x="13.1" y="24.7" fill="#fff" transform="rotate(12.562 63.72 63.971)"/><rect width="101.2" height="78.6" x="13.1" y="24.7" fill="none" stroke="#242c88" stroke-linecap="round" stroke-linejoin="round" stroke-miterlimit="10" stroke-width="1.848" transform="rotate(12.562 63.72 63.971)"/><polygon fill="#242c88" points="116 62 116 35.4 38.1 18 22.1 18 5.8 91.3 76.2 107 106 107" opacity=".2"/><polygon fill="#fff" points="97.2 23 10 23 10 102 111 102 111 36.8"/><polygon fill="none" stroke="#242c88" stroke-linecap="round" stroke-linejoin="round" stroke-miterlimit="10" stroke-width="1.848" points="97.2 23 10 23 10 102 111 102 111 36.8"/><rect width="80" height="58" x="20" y="34" fill="#589fff"/><polygon fill="#bc8d66" points="100.2 92 73.1 44.2 51.2 75.5 40 58.7 20.2 92 39.7 92"/><circle cx="57" cy="52" r="11" fill="#ffc408"/><polygon fill="#fff" points="40 58.5 31.6 72.6 34.6 78.2 37.9 75.2 43.5 79.9 47 78.2 51 75.2"/><path fill="#fff" d="M57.7,66c0,0,4.1,7.2,4.3,6.6c0.2-0.6,6.1-5.6,6.1-5.6l6.9,3.6l1.5-10.3L88.9,72L73.1,44.1L57.7,66z"/><polygon fill="#242c88" points="73.1 44.2 83.6 92 100.2 92" opacity=".4"/><polyline fill="none" stroke="#242c88" stroke-linecap="round" stroke-linejoin="round" stroke-miterlimit="10" stroke-width="2" points="100.2 91.9 73.1 44.1 39.7 91.9"/><polyline fill="none" stroke="#242c88" stroke-linecap="round" stroke-linejoin="round" stroke-miterlimit="10" stroke-width="2" points="51.2 75.4 40 58.5 20.2 91.9"/><polygon fill="#242c88" points="51.2 75.4 40 58.5 47 81.3" opacity=".4"/><polyline fill="none" stroke="#242c88" stroke-linecap="round" stroke-linejoin="round" stroke-miterlimit="10" stroke-width="2" points="51.5 91.9 67.1 70.5 80.4 91.9"/><polygon fill="#242c88" points="72.3 92 67.1 70.7 80.4 92" opacity=".4"/><rect width="80" height="58" x="20" y="34" fill="none" stroke="#242c88" stroke-linecap="round" stroke-linejoin="round" stroke-miterlimit="10" stroke-width="1.848"/><polygon fill="#ffc408" points="111 37 97 37 97 23"/><polygon fill="none" stroke="#242c88" stroke-linecap="round" stroke-linejoin="round" stroke-miterlimit="10" stroke-width="1.848" points="111 37 97 37 97 23"/></svg>