<svg xmlns="http://www.w3.org/2000/svg" width="114" height="128" fill-rule="evenodd" clip-rule="evenodd" image-rendering="optimizeQuality" shape-rendering="geometricPrecision" text-rendering="geometricPrecision" viewBox="0 0 17385 19555"><defs><clipPath id="a"><path d="M9553 237l6972 4025c547,316 860,859 860,1491l0 8049c0,632 -313,1175 -860,1491l-6972 4025c-547,316 -1174,316 -1721,0l-6971 -4025c-548,-316 -861,-859 -861,-1491l0 -8049c0,-632 313,-1175 861,-1491l6971 -4025c547,-316 1174,-316 1721,0z"/></clipPath></defs><path fill="#ffc42e" d="M9553 237l6972 4025c547,316 860,859 860,1491l0 8049c0,632 -313,1175 -860,1491l-6972 4025c-547,316 -1174,316 -1721,0l-6971 -4025c-548,-316 -861,-859 -861,-1491l0 -8049c0,-632 313,-1175 861,-1491l6971 -4025c547,-316 1174,-316 1721,0z"/><g clip-path="url(#a)"><path fill="#f2b22e" d="M813 15567l15759 0c-1780,2418 -4646,3988 -7879,3988 -3233,0 -6100,-1570 -7880,-3988z"/></g><path fill="none" d="M9553 237l6972 4025c547,316 860,859 860,1491l0 8049c0,632 -313,1175 -860,1491l-6972 4025c-547,316 -1174,316 -1721,0l-6971 -4025c-548,-316 -861,-859 -861,-1491l0 -8049c0,-632 313,-1175 861,-1491l6971 -4025c547,-316 1174,-316 1721,0z"/><polygon fill="#53b4ed" points="8874 8112 12876 8112 12876 15567 8874 15567"/><polygon fill="#4288c7" points="8874 8112 7430 8112 7430 15567 8874 15567"/><polygon fill="#fff" points="8874 8112 12876 8112 11963 6820 7960 6820"/><polygon fill="#c5c7cb" points="7960 6820 7430 8112 8874 8112"/><polygon fill="#4288c7" points="7883 6314 11885 6314 11963 6820 7960 6820"/><polygon fill="#fff" points="11002 10339 11324 10526 11645 10713 11645 11088 11645 11463 11324 11650 11002 11838 10680 11650 10359 11463 10359 11088 10359 10713 10680 10526"/><polygon fill="#fff" points="10546 12240 11370 12240 11370 12468 10546 12468"/><path fill="#205081" d="M4961 6304l1512 0c645,0 1173,528 1173,1173l0 6917c0,645 -528,1173 -1173,1173l-1512 0c-645,0 -1173,-528 -1173,-1173l0 -6917c0,-645 528,-1173 1173,-1173z"/><polygon fill="#205081" points="4941 3265 6492 3265 6492 6304 4941 6304"/><polygon fill="#4288c7" points="4765 3659 6669 3659 6669 2477 4765 2477"/><polygon fill="#00dcab" points="3788 8701 7646 8701 7646 12479 3788 12479"/><polygon fill="#fff" points="5248 10200 6095 10200 6095 10434 5248 10434"/><path fill="#4288c7" d="M4747 6878c206,0 372,209 372,468 0,258 -166,468 -372,468 -205,0 -371,-210 -371,-468 0,-259 166,-468 371,-468z"/><polygon fill="#00c69a" points="7100 8701 7646 8701 7646 12479 7100 12479"/><polygon fill="#fff" points="4784 10671 6560 10671 6560 10905 4784 10905"/><g><path fill="#ff576b" d="M2246 9321l1619 0c209,0 393,217 379,481l-219 4347c-14,265 -171,482 -380,482l-1179 0c-209,0 -366,-217 -380,-482l-219 -4347c-14,-264 170,-481 379,-481z"/><polygon fill="#e64e60" points="2466 14631 3645 14631 3645 15437 2466 15437"/><polygon fill="#fff" points="2341 14920 3770 14920 3770 15567 2341 15567"/><polygon fill="#fff" points="2771 12127 3341 12127 3341 11971 2771 11971"/><polygon fill="#fff" points="2586 13164 3525 13164 3525 13007 2586 13007"/></g><rect width="4029" height="1829" x="11490" y="13738" fill="#ff576b"/><rect width="4029" height="296" x="11490" y="13738" fill="#ff8795"/><rect width="4029" height="296" x="11490" y="15271" fill="#e64e60"/></svg>