<svg xmlns="http://www.w3.org/2000/svg" enable-background="new 0 0 130 130" viewBox="0 0 130 130"><circle cx="65" cy="65" r="64" fill="#705C85"/><path fill="#5F4D77" d="M120.01719 57.24558h8.49902c-.07202-.59717-.13867-1.1958-.22729-1.78809h-8.27172c-.49146 0-.8938.40234-.8938.89404S119.52573 57.24558 120.01719 57.24558zM99.99335 36.40303l-5.80801-.00001c-.49168 0-.89395-.40228-.89395-.89395l0 0c0-.49167.40228-.89395.89395-.89395l5.80801.00001c.49167 0 .89395.40228.89395.89395l0 0C100.88731 36.00075 100.48502 36.40303 99.99335 36.40303zM35.85452 35.50907l5.80787.00001c.49167 0 .89394.40228.89394.89395l0 0c0 .49167-.40228.89395-.89395.89395l-5.80787-.00001c-.49167 0-.89394-.40228-.89394-.89395l0 0C34.96057 35.91135 35.36284 35.50907 35.85452 35.50907zM44.66236 35.50908l3.10785.00001c.49167 0 .89394.40228.89394.89395v0c0 .49167-.40228.89395-.89395.89394l-3.10785-.00001c-.49167 0-.89394-.40228-.89394-.89395v0C43.76841 35.91135 44.17068 35.50907 44.66236 35.50908zM108.60825 103.22996h7.71973c.43701-.58594.85425-1.18701 1.27148-1.78809h-8.99121c-.49121 0-.89355.40234-.89355.89404S108.11703 103.22996 108.60825 103.22996zM102.79008 101.44188h2.36105c.49168 0 .89395.40228.89395.89395l0 0c0 .49167-.40228.89394-.89395.89394h-2.36105c-.49168 0-.89395-.40228-.89395-.89394l0 0C101.89613 101.84415 102.29841 101.44188 102.79008 101.44188zM11.57628 82.8647l-8.02954-.00049c.17383.59912.35083 1.19629.54175 1.78809l7.48779.00049c.4917 0 .89404-.4021.89404-.8938v-.00024C12.47032 83.26704 12.06798 82.8647 11.57628 82.8647z"/><circle cx="14.321" cy="83.759" r=".894" fill="#5F4D77"/><circle cx="91.185" cy="35.509" r=".894" fill="#5F4D77"/><path fill="#5F4D77" d="M11.68346 43.30659c.49414 0 .89502-.40039.89502-.89502 0-.49414-.40088-.89502-.89502-.89502L5.4652 41.5168c-.23462.59424-.47119 1.18726-.68823 1.78979H11.68346zM23.29284 19.63863c.4917 0 .89404-.40234.89404-.89404 0-.49146-.40234-.8938-.89404-.8938h-1.56372c-.63623.58423-1.26294 1.17847-1.87524 1.78784H23.29284zM41.72094 19.63866l-14.88587-.00001c-.49167 0-.89395-.40228-.89395-.89395v0c0-.49167.40228-.89395.89395-.89395l14.88587.00001c.49167 0 .89395.40228.89395.89395v0C42.61489 19.23639 42.21261 19.63866 41.72094 19.63866zM91.06758 16.22851l-5.80801-.00001c-.49167 0-.89394-.40228-.89394-.89395v0c0-.49167.40228-.89395.89394-.89395l5.80801.00001c.49168 0 .89395.40228.89395.89395v0C91.96153 15.82623 91.55926 16.22851 91.06758 16.22851zM94.60973 16.22849l11.8125 0c-.72021-.6123-1.45508-1.20728-2.20215-1.78784l-9.61035 0c-.4917 0-.89404.4021-.89404.8938S94.11803 16.22849 94.60973 16.22849zM82.25957 16.22851l-3.10794-.00001c-.49168 0-.89395-.40228-.89395-.89395v0c0-.49167.40228-.89395.89395-.89395l3.10794.00001c.49168 0 .89395.40228.89395.89395v0C83.15352 15.82623 82.75124 16.22851 82.25957 16.22851zM80.46254 63.99034c-.00006.49997-.40002.89983-.89003.89983-.50002-.00001-.90012-.39989-.90006-.89986.00007-.48996.40028-.89007.90029-.89006C80.06274 63.10025 80.46261 63.50039 80.46254 63.99034zM82.57246 64.89014l6.59129.00021c.49431.00002.89503-.4007.89503-.895v0c0-.4943-.40071-.895-.895-.895h-6.59084c-.49023 0-.90039.40015-.90039.89014C81.67256 64.48022 82.08272 64.89014 82.57246 64.89014zM83.44291 115.17008c-.00007.49997-.40003.89983-.89004.89983-.50002-.00001-.90012-.39989-.90005-.89986.00006-.48996.40027-.89007.90028-.89006C83.04311 114.27999 83.44297 114.68012 83.44291 115.17008zM85.55283 116.06988l6.59129.00022c.49431.00002.89503-.4007.89503-.895l0 0c0-.4943-.4007-.895-.895-.895l-6.59084-.00001c-.49023 0-.90039.40015-.90039.89014C84.65292 115.65997 85.06308 116.06988 85.55283 116.06988zM70.16213 110.12415c-.00007.49997-.40003.89983-.89004.89983-.50002-.00001-.90012-.39989-.90005-.89986.00006-.48996.40027-.89007.90028-.89006C69.76233 109.23407 70.16219 109.63419 70.16213 110.12415zM72.27205 111.02395l12.5913.00022c.49431.00002.89503-.4007.89503-.895l0 0c0-.4943-.4007-.895-.895-.895l-12.59083-.00001c-.49023 0-.90039.40015-.90039.89014C71.37215 110.61404 71.7823 111.02395 72.27205 111.02395zM41.01199 74.83248c-.00006.49997-.40003.89983-.89004.89983-.50002-.00001-.90012-.39989-.90005-.89986.00006-.48996.40027-.89007.90029-.89006C40.61219 73.9424 41.01206 74.34252 41.01199 74.83248zM43.12191 75.73228l6.59129.00022c.49431.00002.89503-.4007.89503-.895l0 0c0-.4943-.40071-.895-.895-.895l-6.59084-.00001c-.49023 0-.90039.40015-.90039.89014C42.22201 75.32236 42.63217 75.73228 43.12191 75.73228zM26.21611 66.18034c-.00006.49997-.40003.89984-.89004.89983-.50002-.00002-.90012-.3999-.90006-.89986.00006-.48996.40027-.89008.90029-.89006C25.81631 65.29026 26.21617 65.69039 26.21611 66.18034zM28.32603 67.08015l12.59129.00021c.49431.00002.89503-.4007.89503-.895l0 0c0-.49429-.40071-.895-.895-.895H28.32652c-.49023 0-.90039.40015-.90039.89014C27.42613 66.67023 27.83628 67.08015 28.32603 67.08015zM34.01423 113.21629c-.00006.49997-.40003.89983-.89003.89983-.50002-.00001-.90012-.39989-.90006-.89986.00006-.48996.40027-.89007.90029-.89006C33.61443 112.32619 34.0143 112.72633 34.01423 113.21629zM36.12415 114.11608l12.5913.00022c.49431.00002.89503-.4007.89503-.895v-.00001c0-.49429-.40071-.895-.895-.895H36.12465c-.49023 0-.90039.40015-.90039.89014C35.22425 113.70617 35.63441 114.11608 36.12415 114.11608z"/><path fill="#5F4D77" d="M87.30881,75.99188c-0.1197,0-0.23546,0.01565-0.35463,0.01788
		c-4.30614-4.17793-9.68324-7.25719-15.68658-8.77636v-2.63774c3.13956-2.37196,5.26579-6.00288,5.61832-10.14906
		c2.47536-0.14288,4.44417-2.17625,4.44417-4.68755c0-1.64378-0.84337-3.08752-2.11863-3.93134
		c1.74802-2.90253,2.77184-6.29033,2.77184-9.92545c0-10.65377-8.63637-19.2904-19.29026-19.2904
		c-10.65364,0-19.29027,8.63663-19.29027,19.2904c0,3.63511,1.02409,7.02291,2.7721,9.92545
		c-1.27552,0.84382-2.11889,2.28756-2.11889,3.93134c0,2.50862,1.96488,4.54009,4.43657,4.68676
		c0.35306,4.14827,2.48347,7.78076,5.62592,10.15279v2.63368c-15.09911,3.82153-26.28234,17.50407-26.28234,33.79633
		c0,2.89639,2.34806,5.24438,5.24431,5.24438h38.849c3.46591,4.74156,9.05307,7.83543,15.37936,7.83543
		c10.52189,0,19.05035-8.53632,19.05035-19.05828S97.8307,75.99188,87.30881,75.99188z"/><path fill="#168DE2" d="M90.13272,104.10168c2.89639,0,5.24438-2.34798,5.24438-5.24437V98.8573
						c0-19.25059-15.59937-34.862-34.86213-34.862c-19.23867,0-34.85008,15.61141-34.85008,34.862v0.00001
						c0,2.89639,2.34799,5.24437,5.24438,5.24437H90.13272z"/><path fill="#2E6BCE" d="M95.37672,98.8905c-0.00285,2.88184-2.364,5.21078-5.24585,5.21078l-59.21861,0.00001
						c-1.44839,0-2.75717-0.59003-3.71211-1.5341c-0.89025-0.90112-1.4696-2.11339-1.52329-3.46513
						c0.08591,0.01074,0.16082,0.01074,0.24672,0.01074l47.49829-0.00001c11.01461,0,18.10177-11.71324,12.96881-21.45872
						c-1.09415-2.07735-2.39172-4.0307-3.86607-5.83335c0.92246,0.75098,1.81297,1.55557,2.64979,2.39233
						C91.4903,80.5288,95.38625,89.25348,95.37672,98.8905z"/><path fill="#FFBF9C" d="M51.94716,52.30254v14.05569c0,4.7355,3.8391,8.57435,8.5746,8.57435
							c4.73575,0,8.5746-3.83885,8.5746-8.57435V52.30254H51.94716z"/><circle cx="74.444" cy="47.588" r="4.715" fill="#FFBF9C"/><circle cx="46.599" cy="47.588" r="4.715" fill="#FFBF9C"/><circle cx="60.522" cy="33.731" r="19.29" fill="#ED6E2E"/><path fill="#FFCEAB" d="M74.77615,39.5299v11.52281c0,7.87303-6.37617,14.25845-14.25822,14.25845
					c-7.87303,0-14.25845-6.38542-14.25845-14.25845V39.5299c0-0.77629,0.06475-1.54333,0.18499-2.28263
					c0.85007,0.45301,1.81113,0.7023,2.84596,0.7023c2.4119,0,4.50029-1.3861,5.5076-3.40974
					c2.36543,3.19722,6.08943,5.35036,10.25696,5.58137c3.61301,0.20327,6.94897-0.99806,9.49939-3.10495
					C74.70216,37.82955,74.77615,38.67036,74.77615,39.5299z"/><path fill="#ED6E2E" d="M74.33954 50.19719H74.1455c-.73598 0-1.33262-.59663-1.33262-1.33262V36.84169c0-.73599.59663-1.33262 1.33262-1.33262h.19404c.73598 0 1.33262.59663 1.33262 1.33262v12.02288C75.67216 49.60056 75.07552 50.19719 74.33954 50.19719zM46.89802 50.19719h-.19404c-.73598 0-1.33262-.59663-1.33262-1.33262V36.84169c0-.73599.59664-1.33262 1.33262-1.33262h.19404c.73598 0 1.33262.59663 1.33262 1.33262v12.02288C48.23064 49.60056 47.634 50.19719 46.89802 50.19719z"/><circle cx="54.66" cy="46.657" r="1.593" fill="#2F4867"/><circle cx="66.384" cy="46.657" r="1.593" fill="#2F4867"/><path fill="#2F4867" d="M69.58787 44.13948h-5.4426c-.30302 0-.54868-.24565-.54868-.54868v-.07989c0-.30303.24565-.54868.54868-.54868h5.4426c.30302 0 .54868.24565.54868.54868v.07989C70.13654 43.89383 69.89089 44.13948 69.58787 44.13948zM56.89824 44.13948h-5.44259c-.30303 0-.54868-.24565-.54868-.54868v-.07989c0-.30303.24565-.54868.54868-.54868h5.44259c.30303 0 .54868.24565.54868.54868v.07989C57.44692 43.89383 57.20127 44.13948 56.89824 44.13948z"/><path fill="#FFBF9C" d="M62.15881 51.4843c-.35206.9873-.95519 1.63648-1.64458 1.63648-.68238 0-1.28551-.64917-1.63739-1.63648.49548.2569 1.04846.39228 1.63739.39228C61.10298 51.87658 61.66315 51.7412 62.15881 51.4843zM60.33242 59.08733c-.28426 0-.57032-.01895-.85638-.05775-.26982-.03609-.53963-.09024-.80675-.16424-.27343-.074-.5613-.17777-.88075-.31674-.18589-.08212-.27162-.3014-.19041-.4873.05956-.13446.19312-.22199.34021-.22199.05054 0 .10017.01083.14799.03158.27975.12273.53513.21478.77697.28155.47918.13085.9737.19672 1.47092.19672 2.09809 0 4.07887-1.18847 5.04715-3.02847.06407-.12092.18951-.19673.32758-.19673.06046 0 .11822.01444.17326.04332.08662.04512.1507.12273.18048.21658.02888.09475.01985.19492-.02618.28245C64.94101 57.74455 62.70214 59.08733 60.33242 59.08733z"/><path fill="#39ACE5" d="M29.84527 95.73677c-.04395 0-.08789-.00293-.13281-.00879-.54785-.07275-.93262-.57568-.85938-1.12305.48145-3.61572 1.57129-7.09277 3.23731-10.33447.25391-.49072.85449-.68457 1.34668-.43213.49121.25244.68457.85547.43262 1.34619-1.5625 3.03809-2.58301 6.29639-3.03418 9.68408C30.76812 95.37154 30.33941 95.73677 29.84527 95.73677zM34.79351 82.64888c-.19141 0-.38477-.05469-.55566-.16943-.45898-.30713-.58105-.92822-.27441-1.38721 2.93164-4.37549 6.93555-7.99365 11.57715-10.46338.4873-.25977 1.09277-.07422 1.35254.41309.25977.48779.07422 1.09326-.41309 1.35254-4.35254 2.31543-8.10547 5.7085-10.85449 9.81104C35.43218 82.49361 35.11578 82.64888 34.79351 82.64888z"/><path fill="#FAD553" d="M104.18777,92.87886c0,10.52193-8.5284,19.05828-19.05029,19.05828
			c-10.53003,0-19.05824-8.53635-19.05824-19.05828s8.52821-19.05828,19.05824-19.05828
			C95.65936,73.82058,104.18777,82.35693,104.18777,92.87886z"/><path fill="#FAB941" d="M104.18443,92.87981c0,10.52419-8.52872,19.05297-19.04224,19.05297
			c-6.24352,0-11.79008-2.99316-15.25521-7.62767c3.1862,2.38165,7.13429,3.78702,11.40402,3.78702
			c10.52399,0,19.05271-8.53952,19.05271-19.05297c0-4.28046-1.41591-8.24985-3.80824-11.43604
			C101.18079,81.07899,104.18443,86.6361,104.18443,92.87981z"/><path fill="#FCDE7E" d="M92.67747 79.48976c-.08696 0-.17496-.02095-.25668-.06548-1.4531-.79099-3.01411-1.33629-4.64008-1.62021-.2923-.05133-.48716-.32896-.43582-.62074.05029-.29334.33211-.48559.62021-.43635 1.74121.30434 3.41327.88841 4.96905 1.73544.25982.14143.3562.46725.21477.7276C93.05148 79.38866 92.8671 79.48976 92.67747 79.48976zM82.54347 77.78732c-.25772 0-.48506-.18648-.52802-.44892-.04819-.2923.14981-.56835.44211-.61655.88004-.14562 1.78207-.21948 2.67991-.21948.29649 0 .53641.23991.53641.5364s-.23991.5364-.53641.5364c-.83917 0-1.68253.06915-2.506.20482C82.60214 77.78522 82.57281 77.78732 82.54347 77.78732zM70.63475 87.04704c-.07229 0-.14563-.01466-.21582-.04557-.27135-.11944-.39497-.43583-.27554-.70717 1.70663-3.87162 4.93237-7.00465 8.84957-8.59604.27238-.11105.58878.02043.69878.29544.1121.27448-.01991.58721-.29439.69879-3.66261 1.48714-6.67673 4.41588-8.27126 8.03448C71.03705 86.92761 70.84009 87.04704 70.63475 87.04704zM69.31051 92.78716c-.00629 0-.01362 0-.02096-.00053-.29649-.01152-.52697-.26086-.51544-.55683.04504-1.14719.21058-2.2886.49239-3.39231.07439-.28706.36144-.46202.65269-.38712.28706.07334.45992.36511.38658.65217-.26296 1.0309-.41696 2.09741-.45887 3.16917C69.83538 92.56034 69.59756 92.78716 69.31051 92.78716zM71.03076 100.61578c-.19486 0-.38239-.10634-.47773-.29177-.94708-1.84859-1.52539-3.83495-1.71921-5.90303-.02724-.29491.18962-.5563.48402-.58407.29963-.03038.5563.1891.58459.48454.1802 1.93136.72079 3.78623 1.60606 5.5133.13515.26349.03039.58669-.23257.72184C71.19734 100.59693 71.11353 100.61578 71.03076 100.61578z"/><path fill="#F34B50" d="M95.58935,92.88338L95.58935,92.88338c0,1.33511-1.08232,2.41743-2.41743,2.41743H87.5554v5.61646
			c0,1.33511-1.08232,2.41743-2.41743,2.41743h-0.00893c-1.33511,0-2.41743-1.08232-2.41743-2.41743v-5.61646h-5.61652
			c-1.33511,0-2.41743-1.08232-2.41743-2.41743v-0.00001c0-1.33511,1.08232-2.41743,2.41743-2.41743h5.61652v-5.6255
			c0-1.33511,1.08232-2.41743,2.41743-2.41743h0.00893c1.33511,0,2.41743,1.08232,2.41743,2.41743v5.6255h5.61652
			C94.50703,90.46595,95.58935,91.54827,95.58935,92.88338z"/></svg>